<svg xmlns="http://www.w3.org/2000/svg" xmlns:xlink="http://www.w3.org/1999/xlink" xml:space="preserve" id="logo" width="100%" height="100%" viewBox="0 0 400 59">
<path d="M34.657 49.01a9.75 9.75 0 0 1-9.75-9.75 9.75 9.75 0 0 1 9.75-9.75c5.385 0 9.751 4.365 9.751 9.75s-4.366 9.75-9.75 9.75zm22.885 9.753a9.71 9.71 0 0 1-3.812-.781c-4.955-2.108-7.263-7.834-5.154-12.79 2.434-5.722 1.174-12.252-3.214-16.64-5.901-5.904-15.51-5.901-21.41 0-4.386 4.388-5.648 10.918-3.212 16.64 2.108 4.956-.2 10.682-5.154 12.79-4.957 2.108-10.683-.198-12.79-5.153C-2.77 39.747.12 24.806 10.163 14.764c13.507-13.503 35.484-13.505 48.988 0 10.044 10.043 12.935 24.983 7.367 38.065a9.75 9.75 0 0 1-8.976 5.934z" fill="#E11F26"></path>
<path d="M111.113 13.915c-10.931 0-19.792 8.862-19.792 19.793 0 10.93 8.861 19.792 19.792 19.792 4.667 0 8.899-1.683 12.283-4.384v3.531h7.51V33.281h-.043c-.232-10.729-8.965-19.366-19.75-19.366m0 32.075c-6.773 0-12.282-5.51-12.282-12.282 0-6.773 5.51-12.283 12.282-12.283 6.773 0 12.283 5.51 12.283 12.283 0 6.772-5.511 12.282-12.283 12.282M213.738 33.708c0 6.772-5.51 12.282-12.282 12.282-6.773 0-12.283-5.51-12.283-12.282V15.265h-7.51v18.443c0 10.931 8.861 19.792 19.793 19.792 10.93 0 19.792-8.86 19.792-19.792V15.265h-7.51v18.443zM248.136 13.915c-10.931 0-19.792 8.862-19.792 19.793V52.15h7.51V33.708c0-6.773 5.51-12.283 12.282-12.283s12.282 5.51 12.282 12.283V52.15h7.51V33.708c0-10.93-8.861-19.793-19.792-19.793M157.793 21.426c4.749 0 8.83 2.738 10.873 6.69l.048-.023 5.96-4.586c-3.468-5.726-9.697-9.591-16.881-9.591-10.931 0-19.792 8.86-19.792 19.793 0 10.93 8.86 19.792 19.792 19.792 7.184 0 13.413-3.866 16.882-9.591l-5.961-4.586-.048-.025c-2.043 3.954-6.124 6.692-10.873 6.692-6.772 0-12.282-5.51-12.282-12.282 0-6.773 5.51-12.283 12.282-12.283M350.46 9.342A4.671 4.671 0 1 0 350.458 0a4.671 4.671 0 0 0 0 9.342M346.375 52.15h8.168V15.265h-8.168zM399.518 15.265H389.42l-8.842 11.56-8.843-11.56h-10.098L375.53 33.71 361.637 52.15h10.098l8.843-11.56 8.842 11.56h10.098L385.625 33.71zM336.264 22.775v-7.51h-7.478V9.342l-7.51.497V43.47c0 4.57 4.109 8.679 9.176 8.679h5.812v-7.51h-5.812a1.669 1.669 0 0 1-1.666-1.666v-20.2h7.478zM280.945 19.713c-7.73 7.73-7.73 20.26 0 27.99 7.728 7.73 20.26 7.73 27.99 0 2.281-2.281 3.806-5.002 4.743-7.875l-6.947-2.693-.053-.016c-.556 1.928-1.536 3.758-3.053 5.274-3.856 3.857-9.64 4.552-14.255 2.196l16.452-16.451 1.205-1.206 4.296-4.296a19.78 19.78 0 0 0-2.387-2.923c-7.73-7.73-20.262-7.73-27.991 0zm3.113 19.566c-2.354-4.615-1.66-10.4 2.197-14.256 3.858-3.856 9.64-4.551 14.255-2.196l-16.452 16.452z" fill="#2B3033"></path>
</svg>
